<svg width="79" height="18" viewBox="0 0 79 18" fill="none" xmlns="http://www.w3.org/2000/svg">
<path d="M24.62 2.748C24.332 1.668 23.48 0.816 22.396 0.524C20.436 1.90735e-07 12.572 0 12.572 0C12.572 0 4.712 1.90735e-07 2.748 0.524C1.668 0.812 0.816 1.664 0.524 2.748C0 4.708 0 8.8 0 8.8C0 8.8 0 12.892 0.524 14.852C0.812 15.932 1.664 16.784 2.748 17.076C4.712 17.6 12.572 17.6 12.572 17.6C12.572 17.6 20.436 17.6 22.396 17.076C23.476 16.788 24.328 15.936 24.62 14.852C25.144 12.892 25.144 8.8 25.144 8.8C25.144 8.8 25.144 4.708 24.62 2.748Z" fill="#FF0000"/>
<path d="M10.0601 12.5721L16.5921 8.80008L10.0601 5.02808V12.5721Z" fill="white"/>
<path d="M36.4956 16.0119C35.9996 15.6759 35.6436 15.1559 35.4356 14.4479C35.2276 13.7399 35.1196 12.7999 35.1196 11.6239V10.0239C35.1196 8.83595 35.2396 7.88395 35.4796 7.16395C35.7196 6.44395 36.0956 5.91995 36.6036 5.59195C37.1116 5.26395 37.7796 5.09595 38.6076 5.09595C39.4236 5.09595 40.0756 5.26395 40.5676 5.59995C41.0596 5.93595 41.4196 6.45995 41.6476 7.17195C41.8756 7.88395 41.9876 8.83595 41.9876 10.0199V11.6199C41.9876 12.7959 41.8756 13.7399 41.6556 14.4519C41.4356 15.1639 41.0756 15.6879 40.5756 16.0159C40.0796 16.3439 39.4036 16.5119 38.5516 16.5119C37.6796 16.5159 36.9916 16.3479 36.4956 16.0119ZM39.2836 14.2839C39.4196 13.9239 39.4916 13.3359 39.4916 12.5239V9.08795C39.4916 8.29595 39.4236 7.71995 39.2836 7.35195C39.1476 6.98795 38.9036 6.80395 38.5556 6.80395C38.2196 6.80395 37.9836 6.98795 37.8436 7.35195C37.7076 7.71595 37.6356 8.29595 37.6356 9.08795V12.5239C37.6356 13.3399 37.6996 13.9279 37.8316 14.2839C37.9636 14.6439 38.2036 14.8239 38.5516 14.8239C38.9036 14.8239 39.1436 14.6439 39.2836 14.2839Z" fill="#282828"/>
<path d="M74.6839 11.652V12.208C74.6839 12.916 74.7039 13.444 74.7479 13.8C74.7879 14.152 74.8759 14.412 75.0079 14.572C75.1399 14.732 75.3439 14.816 75.6199 14.816C75.9919 14.816 76.2479 14.672 76.3839 14.384C76.5199 14.096 76.5959 13.616 76.6079 12.944L78.7479 13.068C78.7599 13.164 78.7639 13.296 78.7639 13.464C78.7639 14.484 78.4839 15.244 77.9279 15.748C77.3719 16.252 76.5839 16.504 75.5639 16.504C74.3399 16.504 73.4839 16.12 72.9919 15.352C72.4999 14.584 72.2559 13.4 72.2559 11.792V9.868C72.2559 8.212 72.5119 7.008 73.0199 6.244C73.5279 5.484 74.3999 5.104 75.6359 5.104C76.4879 5.104 77.1399 5.26 77.5959 5.572C78.0519 5.884 78.3719 6.368 78.5599 7.028C78.7439 7.688 78.8399 8.6 78.8399 9.76V11.648H74.6839V11.652ZM74.9999 7.012C74.8759 7.168 74.7919 7.424 74.7479 7.776C74.7039 8.128 74.6839 8.668 74.6839 9.384V10.176H76.4999V9.384C76.4999 8.676 76.4759 8.14 76.4279 7.776C76.3799 7.412 76.2919 7.152 76.1679 7.004C76.0439 6.856 75.8479 6.78 75.5839 6.78C75.3199 6.776 75.1239 6.856 74.9999 7.012Z" fill="#282828"/>
<path d="M30.4558 11.4439L27.6318 1.2479H30.0958L31.0838 5.8679C31.3358 7.0079 31.5198 7.9759 31.6398 8.7799H31.7118C31.7958 8.2039 31.9798 7.2399 32.2678 5.8839L33.2918 1.2439H35.7558L32.8998 11.4439V16.3359H30.4558V11.4439Z" fill="#282828"/>
<path d="M49.9998 5.31201V16.332H48.0598L47.8438 14.984H47.7918C47.2638 16.004 46.4718 16.512 45.4198 16.512C44.6878 16.512 44.1478 16.272 43.7998 15.792C43.4518 15.312 43.2798 14.564 43.2798 13.544V5.31201H45.7598V13.404C45.7598 13.896 45.8118 14.248 45.9198 14.456C46.0278 14.664 46.2078 14.772 46.4598 14.772C46.6758 14.772 46.8838 14.708 47.0798 14.576C47.2758 14.444 47.4238 14.276 47.5198 14.072V5.31201H49.9998Z" fill="#282828"/>
<path d="M62.7278 5.31201V16.332H60.7878L60.5718 14.984H60.5198C59.9918 16.004 59.1998 16.512 58.1478 16.512C57.4158 16.512 56.8758 16.272 56.5278 15.792C56.1798 15.312 56.0078 14.564 56.0078 13.544V5.31201H58.4878V13.404C58.4878 13.896 58.5398 14.248 58.6478 14.456C58.7558 14.664 58.9358 14.772 59.1878 14.772C59.4038 14.772 59.6118 14.708 59.8078 14.576C60.0038 14.444 60.1518 14.276 60.2478 14.072V5.31201H62.7278Z" fill="#282828"/>
<path d="M56.7437 3.2438H54.2797V16.3318H51.8517V3.2438H49.3877V1.2478H56.7397V3.2438H56.7437Z" fill="#282828"/>
<path d="M70.9396 7.0759C70.7876 6.3799 70.5476 5.8759 70.2116 5.5639C69.8756 5.2519 69.4156 5.0959 68.8276 5.0959C68.3716 5.0959 67.9476 5.22389 67.5516 5.48389C67.1556 5.73989 66.8516 6.0799 66.6356 6.4999H66.6156V0.691895H64.2236V16.3359H66.2716L66.5236 15.2919H66.5756C66.7676 15.6639 67.0556 15.9559 67.4396 16.1719C67.8236 16.3879 68.2476 16.4959 68.7156 16.4959C69.5556 16.4959 70.1716 16.1079 70.5676 15.3359C70.9636 14.5639 71.1596 13.3559 71.1596 11.7119V9.96789C71.1636 8.73589 71.0876 7.7719 70.9396 7.0759ZM68.6636 11.5719C68.6636 12.3759 68.6316 13.0039 68.5636 13.4599C68.4996 13.9159 68.3876 14.2399 68.2316 14.4319C68.0756 14.6239 67.8676 14.7199 67.6036 14.7199C67.3996 14.7199 67.2116 14.6719 67.0356 14.5759C66.8636 14.4799 66.7196 14.3359 66.6116 14.1439V7.88389C66.6956 7.58389 66.8396 7.3399 67.0436 7.1479C67.2476 6.9559 67.4676 6.8599 67.7076 6.8599C67.9596 6.8599 68.1556 6.9599 68.2916 7.1559C68.4276 7.3519 68.5236 7.6879 68.5796 8.1519C68.6316 8.6199 68.6596 9.2839 68.6596 10.1479V11.5719H68.6636Z" fill="#282828"/>
</svg>
